<svg xmlns="http://www.w3.org/2000/svg" xmlns:xlink="http://www.w3.org/1999/xlink" width="1000" zoomAndPan="magnify" viewBox="0 0 750 749.999995" height="1000" preserveAspectRatio="xMidYMid meet" version="1.0"><defs><clipPath id="bac4941ca3"><path d="M 35.25 0 L 714.75 0 C 734.21875 0 750 15.78125 750 35.25 L 750 714.75 C 750 734.21875 734.21875 750 714.75 750 L 35.25 750 C 15.78125 750 0 734.21875 0 714.75 L 0 35.25 C 0 15.78125 15.78125 0 35.25 0 Z M 35.25 0 " clip-rule="nonzero"/></clipPath><clipPath id="7e1ab8c879"><path d="M 82 81.453125 L 668 81.453125 L 668 668.703125 L 82 668.703125 Z M 82 81.453125 " clip-rule="nonzero"/></clipPath></defs><g clip-path="url(#bac4941ca3)"><rect x="-75" width="900" fill="#000000" y="-74.999999" height="899.999994" fill-opacity="1"/></g><g clip-path="url(#7e1ab8c879)"><path fill="#ffffff" d="M 374.070312 668.539062 C 536.257812 668.539062 667.808594 536.671875 667.808594 375.902344 C 667.808594 213.324219 536.257812 81.457031 374.070312 81.457031 C 213.683594 81.457031 82.128906 213.324219 82.128906 375.902344 C 82.128906 536.671875 213.683594 668.539062 374.070312 668.539062 Z M 244.316406 375.902344 C 244.316406 303.644531 303.785156 244.03125 374.070312 244.03125 C 446.152344 244.03125 505.621094 303.644531 505.621094 375.902344 C 505.621094 446.351562 446.152344 505.964844 374.070312 505.964844 C 303.785156 505.964844 244.316406 446.351562 244.316406 375.902344 Z M 244.316406 375.902344 " fill-opacity="1" fill-rule="nonzero"/></g></svg>