<svg clip-rule="evenodd" fill-rule="evenodd" stroke-linejoin="round" stroke-miterlimit="2" viewBox="0 0 1024 319" xmlns="http://www.w3.org/2000/svg"><g fill="#7cecca" fill-rule="nonzero" transform="matrix(13.4107 0 0 13.4107 -6290.49 313.772)"><path d="m480.73.36c6.48 0 11.736-5.256 11.736-11.664 0-6.48-5.256-11.736-11.736-11.736-6.408 0-11.664 5.256-11.664 11.736 0 6.408 5.256 11.664 11.664 11.664zm-5.184-11.664c0-2.88 2.376-5.256 5.184-5.256 2.88 0 5.256 2.376 5.256 5.256 0 2.808-2.376 5.184-5.256 5.184-2.808 0-5.184-2.376-5.184-5.184z"/><path d="m498.544.288c1.8 0 3.24-1.44 3.24-3.24v-8.28c0-3.312 1.944-5.256 5.256-5.256 3.24 0 5.184 1.944 5.184 5.256v8.28c0 1.8 1.44 3.24 3.24 3.24s3.24-1.44 3.24-3.24v-8.28c0-6.336-5.256-11.736-11.664-11.736-6.48 0-11.736 5.4-11.736 11.736v8.28c0 1.8 1.44 3.24 3.24 3.24z"/><path d="m542.183-23.4c-1.8 0-3.24 1.512-3.24 3.24v8.856c0 3.24-1.944 5.184-5.184 5.184-3.312 0-5.256-1.944-5.256-5.184v-8.856c0-1.728-1.44-3.24-3.24-3.24s-3.24 1.512-3.24 3.24v8.856c0 6.264 5.256 11.664 11.736 11.664 6.408 0 11.664-5.4 11.664-11.664v-8.856c0-1.728-1.44-3.24-3.24-3.24z"/></g></svg>